<?xml version="1.0" encoding="UTF-8" standalone="no"?>
<svg
   xmlns:dc="http://purl.org/dc/elements/1.1/"
   xmlns:cc="http://creativecommons.org/ns#"
   xmlns:rdf="http://www.w3.org/1999/02/22-rdf-syntax-ns#"
   xmlns:svg="http://www.w3.org/2000/svg"
   xmlns="http://www.w3.org/2000/svg"
   xmlns:sodipodi="http://sodipodi.sourceforge.net/DTD/sodipodi-0.dtd"
   xmlns:inkscape="http://www.inkscape.org/namespaces/inkscape"
   width="65"
   height="65"
   viewBox="0 0 17.197917 17.197917"
   version="1.1"
   id="svg8024"
   inkscape:version="1.0.1 (c497b03c, 2020-09-10)"
   sodipodi:docname="logo-footer.svg">
  <defs
     id="defs8018" />
  <sodipodi:namedview
     id="base"
     pagecolor="#ffffff"
     bordercolor="#666666"
     borderopacity="1.0"
     inkscape:pageopacity="0.0"
     inkscape:pageshadow="2"
     inkscape:zoom="7.7881864"
     inkscape:cx="22.786592"
     inkscape:cy="34.693773"
     inkscape:document-units="px"
     inkscape:current-layer="layer1"
     inkscape:document-rotation="0"
     showgrid="false"
     units="px"
     borderlayer="true"
     inkscape:showpageshadow="false"
     inkscape:window-width="1440"
     inkscape:window-height="855"
     inkscape:window-x="0"
     inkscape:window-y="23"
     inkscape:window-maximized="1" />
  <metadata
     id="metadata8021">
    <rdf:RDF>
      <cc:Work
         rdf:about="">
        <dc:format>image/svg+xml</dc:format>
        <dc:type
           rdf:resource="http://purl.org/dc/dcmitype/StillImage" />
        <dc:title></dc:title>
      </cc:Work>
    </rdf:RDF>
  </metadata>
  <g
     inkscape:label="Layer 1"
     inkscape:groupmode="layer"
     id="layer1">
    <g
       id="g3174"
       transform="matrix(1.4000001,0,0,1.4000001,0.26458258,0.26458266)">
      <path
         id="circle1784"
         style="fill:#e4007c;stroke:#ffffff;stroke-width:0.794372;stroke-linecap:round;stroke-miterlimit:4;stroke-dasharray:none;stroke-opacity:1"
         d="M 11.509064,5.9531251 A 5.5559388,5.5559388 0 0 1 5.9531252,11.509064 5.5559388,5.5559388 0 0 1 0.39718646,5.9531251 5.5559388,5.5559388 0 0 1 5.9531252,0.39718635 5.5559388,5.5559388 0 0 1 11.509064,5.9531251 Z" />
      <g
         id="g1794"
         transform="matrix(0.03965478,0,0,0.03965478,-31.071983,-0.70814484)"
         style="stroke-width:20.0322;stroke-miterlimit:4;stroke-dasharray:none">
        <path
           style="fill:#fefefe;stroke-width:20.0322;stroke-miterlimit:4;stroke-dasharray:none"
           d="m 893.82183,118.41621 v -3.52778 h 3.70417 3.70416 v 3.52778 3.52777 h -3.70416 -3.70417 z m 63.5,-31.750003 v -3.527778 h 3.70417 3.70417 v 3.527778 3.527777 h -3.70417 -3.70417 z"
           id="path1786" />
        <path
           style="fill:#fd43a8;stroke-width:20.0322;stroke-miterlimit:4;stroke-dasharray:none"
           d="m 886.76627,122.12037 v -7.23194 h 3.52778 3.52778 v 3.52778 3.52777 h 3.70417 3.70416 v 3.70417 3.70417 h -7.23194 -7.23195 z m 63.50001,-31.749997 v -7.231944 h 3.52777 3.52778 v 3.527778 3.527777 h 3.70417 3.70417 v 3.704167 3.704166 h -7.23195 -7.23194 z"
           id="path1788" />
        <path
           style="fill:#15c154;stroke-width:20.0322;stroke-miterlimit:4;stroke-dasharray:none"
           d="m 934.39128,239.41898 v -30.69166 h -7.9375 -7.93751 v -7.23195 -7.23194 h 7.93751 7.9375 v -7.9375 -7.9375 h 7.9375 7.9375 v -31.75 -31.75 h 7.23194 7.23195 v 7.9375 7.9375 h 7.9375 7.9375 v 15.16944 15.16945 h -7.9375 -7.9375 v 15.875 15.875 h -7.9375 -7.9375 v 38.62916 38.62917 h -7.23195 -7.23194 z m -31.75001,-53.79861 v -7.23194 h 7.23195 7.23194 v 7.23194 7.23195 h -7.23194 -7.23195 z m -15.875,-23.8125 v -15.16944 h 7.23195 7.23194 v 15.16944 15.16945 h -7.23194 -7.23195 z"
           id="path1790" />
        <path
           style="fill:#000000;stroke-width:20.0322;stroke-miterlimit:4;stroke-dasharray:none"
           d="m 917.10516,240.12454 v -29.98611 h -7.9375 -7.9375 v -7.9375 -7.9375 h -7.9375 -7.9375 v -7.9375 -7.9375 h -7.9375 -7.9375 v -16.58056 -16.58055 h 7.9375 7.9375 v -7.23195 -7.23194 h -7.9375 -7.9375 v -8.64306 -8.64305 h 7.9375 7.9375 v -7.9375 -7.937503 h 8.64306 8.64305 v 7.937503 7.9375 h 7.9375 7.9375 v 8.64305 8.64306 h -7.9375 -7.9375 v 7.23194 7.23195 h 7.9375 7.9375 v 15.875 15.875 h 7.23195 7.23194 v -31.75 -31.75 h 7.9375 7.93751 v -7.23195 -7.231941 h -7.93751 -7.9375 v -8.643056 -8.643055 h 7.9375 7.93751 v -7.9375 -7.9375 h 8.64305 8.64306 v 7.9375 7.9375 h 7.9375 7.9375 v 8.643055 8.643056 h -7.9375 -7.9375 v 7.231941 7.23195 h 7.9375 7.9375 v 7.9375 7.9375 h 7.9375 7.9375 v 16.58055 16.58056 h -7.9375 -7.9375 v 15.875 15.875 h -7.9375 -7.9375 v 37.92361 37.92361 h -8.64306 -8.64305 v -38.62917 -38.62916 h 7.9375 7.9375 v -15.875 -15.875 h 7.9375 7.9375 v -15.16945 -15.16944 h -7.9375 -7.9375 v -7.9375 -7.9375 h -7.23195 -7.23194 v 31.75 31.75 h -7.9375 -7.9375 v 7.9375 7.9375 h -7.9375 -7.93751 v 7.23194 7.23195 h 7.93751 7.9375 v 30.69166 30.69167 h -8.64306 -8.64306 z m 0,-54.50417 v -7.23194 h -7.23194 -7.23195 v 7.23194 7.23195 h 7.23195 7.23194 z m -15.875,-23.8125 v -15.16944 h -7.23194 -7.23195 v 15.16944 15.16945 h 7.23195 7.23194 z m 0,-39.6875 v -7.23194 h -7.23194 -7.23195 v 7.23194 7.23195 h 7.23195 7.23194 z m 63.50001,-31.749997 v -7.231944 h -7.23195 -7.23194 v 7.231944 7.231944 h 7.23194 7.23195 z"
           id="path1792" />
      </g>
    </g>
  </g>
</svg>
