<?xml version="1.0" encoding="UTF-8" standalone="no"?>
<svg
   xmlns:dc="http://purl.org/dc/elements/1.1/"
   xmlns:cc="http://creativecommons.org/ns#"
   xmlns:rdf="http://www.w3.org/1999/02/22-rdf-syntax-ns#"
   xmlns:svg="http://www.w3.org/2000/svg"
   xmlns="http://www.w3.org/2000/svg"
   xmlns:sodipodi="http://sodipodi.sourceforge.net/DTD/sodipodi-0.dtd"
   xmlns:inkscape="http://www.inkscape.org/namespaces/inkscape"
   width="900"
   height="292"
   viewBox="0 0 238.12499 77.258336"
   version="1.1"
   id="svg2977"
   sodipodi:docname="mariachi-punks.svg"
   inkscape:version="1.0.1 (c497b03c, 2020-09-10)">
  <defs
     id="defs2971" />
  <sodipodi:namedview
     id="base"
     pagecolor="#ffffff"
     bordercolor="#666666"
     borderopacity="1.0"
     inkscape:pageopacity="0.0"
     inkscape:pageshadow="2"
     inkscape:zoom="2.7484555"
     inkscape:cx="122.89205"
     inkscape:cy="91.005559"
     inkscape:document-units="px"
     inkscape:current-layer="layer1"
     inkscape:document-rotation="0"
     showgrid="false"
     inkscape:showpageshadow="false"
     borderlayer="true"
     units="px"
     inkscape:window-width="1440"
     inkscape:window-height="855"
     inkscape:window-x="0"
     inkscape:window-y="23"
     inkscape:window-maximized="1" />
  <metadata
     id="metadata2974">
    <rdf:RDF>
      <cc:Work
         rdf:about="">
        <dc:format>image/svg+xml</dc:format>
        <dc:type
           rdf:resource="http://purl.org/dc/dcmitype/StillImage" />
        <dc:title></dc:title>
      </cc:Work>
    </rdf:RDF>
  </metadata>
  <g
     inkscape:label="Layer 1"
     inkscape:groupmode="layer"
     id="layer1">
    <g
       id="g1866"
       transform="matrix(3.4529846,0,0,3.4529846,-2194.6494,-60.170099)"
       inkscape:export-filename="/Users/dan/Documents/arte/nft/uno_cero/mariachi_punks/website/website/mariachi_punks.png"
       inkscape:export-xdpi="96"
       inkscape:export-ydpi="96">
      <path
         style="fill:#000000;fill-opacity:1;stroke-width:0.0179589"
         d="M 635.58042,23.182564 V 19.73446 h 1.14937 1.14937 v -1.149368 -1.149368 h 1.14936 1.14937 v 1.149368 1.149368 h 1.14937 1.14937 v -1.149368 -1.149368 h 1.14937 1.14936 v 1.149368 1.149368 h 1.14938 1.14936 v 3.448104 3.448104 h -1.14936 -1.14938 V 23.182564 19.73446 h -1.14936 -1.14937 v 2.298736 2.298736 h -1.14937 -1.14937 V 22.033196 19.73446 h -1.14937 -1.14936 v 3.448104 3.448104 h -1.14937 -1.14937 z m 13.79242,0 V 19.73446 h 1.14936 1.14937 v -1.149368 -1.149368 h 1.14937 1.14937 v 1.149368 1.149368 h 1.14936 1.14937 v 3.448104 3.448104 h -1.14937 -1.14936 V 25.4813 24.331932 h -1.14937 -1.14937 v 1.149368 1.149368 h -1.14937 -1.14936 z m 4.59747,-2.298736 V 19.73446 h -1.14937 -1.14937 v 1.149368 1.149368 h 1.14937 1.14937 z m 4.59747,2.298736 V 19.73446 h 1.14937 1.14937 v -1.149368 -1.149368 h 2.29873 2.29874 v 1.149368 1.149368 h 1.14937 1.14937 v 1.149368 1.149368 h -1.14937 -1.14937 v 1.149368 1.149368 h 1.14937 1.14937 v 1.149368 1.149368 h -1.14937 -1.14937 V 25.4813 24.331932 h -2.29874 -2.29873 v 1.149368 1.149368 h -1.14937 -1.14937 z m 6.89621,-2.298736 V 19.73446 h -2.29874 -2.29873 v 1.149368 1.149368 h 2.29873 2.29874 z m 4.59747,1.149368 v -4.597472 h 1.14937 1.14937 v 4.597472 4.597472 h -1.14937 -1.14937 z m 4.59747,1.149368 V 19.73446 h 1.14937 1.14937 v -1.149368 -1.149368 h 1.14937 1.14937 v 1.149368 1.149368 h 1.14937 1.14936 v 3.448104 3.448104 h -1.14936 -1.14937 V 25.4813 24.331932 h -1.14937 -1.14937 v 1.149368 1.149368 h -1.14937 -1.14937 z m 4.59748,-2.298736 V 19.73446 h -1.14937 -1.14937 v 1.149368 1.149368 h 1.14937 1.14937 z m 6.8962,4.597472 v -1.149368 h -1.14936 -1.14937 V 22.033196 19.73446 h 1.14937 1.14936 v -1.149368 -1.149368 h 2.29874 2.29874 v 1.149368 1.149368 h -2.29874 -2.29874 v 2.298736 2.298736 h 2.29874 2.29874 v 1.149368 1.149368 h -2.29874 -2.29874 z m 6.89621,-3.448104 v -4.597472 h 1.14937 1.14937 v 2.298736 2.298736 h 1.14937 1.14936 V 19.73446 17.435724 h 1.14937 1.14937 v 4.597472 4.597472 h -1.14937 -1.14937 V 25.4813 24.331932 h -1.14936 -1.14937 v 1.149368 1.149368 h -1.14937 -1.14937 z m 9.19494,0 v -4.597472 h 1.14937 1.14937 v 4.597472 4.597472 h -1.14937 -1.14937 z"
         id="path1083" />
      <path
         style="fill:#000000;fill-opacity:1;stroke-width:0.0179589"
         d="m 644.77536,36.341603 v -3.448104 h 1.14937 1.14937 v -1.149368 -1.149369 h 2.29873 2.29874 v 1.149369 1.149368 h 1.14937 1.14937 v 1.149368 1.149368 h -1.14937 -1.14937 v 1.149368 1.149368 h -2.29874 -2.29873 v 1.149368 1.149368 h -1.14937 -1.14937 z m 6.89621,-2.298736 v -1.149368 h -2.29874 -2.29873 v 1.149368 1.149368 h 2.29873 2.29874 z m 6.89621,4.597472 v -1.149368 h -1.14937 -1.14937 v -3.448104 -3.448105 h 1.14937 1.14937 v 3.448105 3.448104 h 2.29873 2.29874 v -3.448104 -3.448105 h 1.14937 1.14937 v 3.448105 3.448104 h -1.14937 -1.14937 v 1.149368 1.149368 h -2.29874 -2.29873 z m 9.19494,-3.448104 v -4.597473 h 1.14937 1.14937 v 1.149369 1.149368 h 1.14937 1.14937 v 1.149368 1.149368 h 1.14936 1.14937 v -2.298736 -2.298737 h 1.14937 1.14937 v 2.298737 2.298736 h -1.14937 -1.14937 v 1.149368 1.149368 h 1.14937 1.14937 v 1.149368 1.149368 h -1.14937 -1.14937 v -1.149368 -1.149368 h -1.14937 -1.14936 v -1.149368 -1.149368 h -1.14937 -1.14937 v 2.298736 2.298736 h -1.14937 -1.14937 z m 11.49369,0 v -4.597473 h 1.14936 1.14937 v 2.298737 2.298736 h 1.14937 1.14937 v -2.298736 -2.298737 h 1.14937 1.14936 v 2.298737 2.298736 h -1.14936 -1.14937 v 1.149368 1.149368 h 1.14937 1.14936 v 1.149368 1.149368 h -1.14936 -1.14937 v -1.149368 -1.149368 h -1.14937 -1.14937 v 1.149368 1.149368 h -1.14937 -1.14936 z m 9.19494,3.448104 v -1.149368 h 1.14937 1.14937 v -1.149368 -1.149368 h -1.14937 -1.14937 v -1.149368 -1.149368 h 1.14937 1.14937 v -1.149368 -1.149369 h 2.29873 2.29874 v 1.149369 1.149368 h -2.29874 -2.29873 v 1.149368 1.149368 h 2.29873 2.29874 v 2.298736 2.298736 h -3.44811 -3.4481 z"
         id="path1085" />
    </g>
  </g>
</svg>
